<svg version="1.0" xmlns="http://www.w3.org/2000/svg" xmlns:xlink="http://www.w3.org/1999/xlink" viewBox="0 0 340.000000 340.000000" class="pe-none">
    <g>
        <svg viewBox="0 0 60 60" x="0" y="0">
            <g>
                <svg xmlns="http://www.w3.org/2000/svg" xmlns:xlink="http://www.w3.org/1999/xlink" xml:space="preserve" version="1.1" viewBox="0 0 333 333" x="0" y="0" fill-rule="evenodd" clip-rule="evenodd" width="60" height="60">
                    <path d="M79 0l175 0c22,0 42,9 56,23l0 0 0 0c14,15 23,34 23,56l0 175c0,22 -9,42 -23,56l0 0 0 0c-14,14 -34,23 -56,23l-175 0c-22,0 -41,-9 -56,-23l0 0 0 0c-14,-14 -23,-34 -23,-56l0 -175c0,-22 9,-41 23,-56l0 0 0 0c15,-14 34,-23 56,-23zm175 16l-175 0c-17,0 -33,7 -44,19l0 0c-12,11 -19,27 -19,44l0 175c0,18 7,33 19,45l0 0c11,11 27,18 44,18l175 0c18,0 33,-7 45,-18l0 0c11,-12 18,-27 18,-45l0 -175c0,-17 -7,-33 -18,-44l0 0c-12,-12 -27,-19 -45,-19z"></path>
                </svg>
                <svg xmlns="http://www.w3.org/2000/svg" xmlns:xlink="http://www.w3.org/1999/xlink" viewBox="0 0 39.816 51.120000000000005" width="33" height="33" x="13.5" y="13.5" class="image-svg-letter">
                    <path transform="translate(-6.408 51.120000000000005)" d="M11.45 0L6.41 0L6.41-51.05L11.45-51.05L11.45-21.38L39.60-51.12L45.14-51.12L24.26-28.66L46.22 0L40.68 0L21.10-25.70L11.45-15.70L11.45 0Z"></path>
                </svg>
            </g>
        </svg>
    </g>
</svg>